<?xml version="1.0" encoding="utf-8"?>
<!-- Generator: Adobe Illustrator 22.0.1, SVG Export Plug-In . SVG Version: 6.00 Build 0)  -->
<svg version="1.1" id="Layer_1" xmlns="http://www.w3.org/2000/svg" xmlns:xlink="http://www.w3.org/1999/xlink" x="0px" y="0px"
	 viewBox="0 0 32 32" style="enable-background:new 0 0 32 32;" xml:space="preserve">
<style type="text/css">
	.st0{fill:#1A1A1A;}
</style>
<path class="st0" d="M16,1C7.7,1,1,7.7,1,16c0,2.4,0.6,4.7,1.6,6.7C3.4,21.1,5.1,20,7,20c2.8,0,5,2.2,5,5c0,1.9-1.1,3.6-2.7,4.4
	c2,1,4.3,1.6,6.7,1.6c8.3,0,15-6.7,15-15S24.3,1,16,1z M22,7c1.7,0,3,1.3,3,3s-1.3,3-3,3s-3-1.3-3-3S20.3,7,22,7z M9.3,16.4
	c-1.4,0.8-3.3,0.3-4.1-1.1S4.9,12,6.3,11.2s3.3-0.3,4.1,1.1C11.2,13.7,10.7,15.6,9.3,16.4z M12.3,10.4c-1.4-0.8-1.9-2.7-1.1-4.1
	c0.8-1.4,2.7-1.9,4.1-1.1s1.9,2.7,1.1,4.1S13.7,11.2,12.3,10.4z M20.8,25.7c-0.8,1.4-2.7,1.9-4.1,1.1s-1.9-2.7-1.1-4.1
	s2.7-1.9,4.1-1.1C21.1,22.4,21.6,24.3,20.8,25.7z M25.7,20.8c-1.4,0.8-3.3,0.3-4.1-1.1c-0.8-1.4-0.3-3.3,1.1-4.1
	c1.4-0.8,3.3-0.3,4.1,1.1C27.6,18.1,27.1,20,25.7,20.8z"/>
</svg>
