<?xml version="1.0" encoding="utf-8"?>
<!-- Generator: Adobe Illustrator 22.0.1, SVG Export Plug-In . SVG Version: 6.00 Build 0)  -->
<svg version="1.1" id="Layer_1" xmlns="http://www.w3.org/2000/svg" xmlns:xlink="http://www.w3.org/1999/xlink" x="0px" y="0px"
	 viewBox="0 0 32 32" style="enable-background:new 0 0 32 32;" xml:space="preserve">
<style type="text/css">
	.st0{opacity:0.8;}
	.st1{fill:#FFFFFF;}
	.st2{opacity:0.5;}
	.st3{opacity:0.6;}
	.st4{opacity:0.7;}
	.st5{opacity:0.9;}
</style>
<g class="st0">
	<path class="st1" d="M32,16c0,0.2,0,0.3,0,0.5v0.1l0,0c0,0.1,0,0.2,0,0.3c-0.1,2.5-0.9,4.9-2.1,7c-0.1-0.2-0.2-0.3-0.3-0.5
		c-0.1-0.2-0.3-0.4-0.4-0.6c-0.2-0.3-0.4-0.6-0.7-0.9C26,18.7,22.2,16.5,18,16v-0.1c0-3.9,3.1-7,7-7S32,12.1,32,16z"/>
</g>
<g class="st2">
	<path class="st1" d="M31.9,14.3C31.1,7.9,25.6,3,19,3C11.8,3,6,8.8,6,16c0,1.1,0.1,2.2,0.4,3.2c-1.7,1.3-3.2,2.9-4.3,4.8
		C0.8,21.6,0,18.9,0,16C0,7.2,7.2,0,16,0C24.3,0,31.1,6.3,31.9,14.3z"/>
</g>
<g class="st3">
	<path class="st1" d="M31.9,14.8C31.3,9.9,27.1,6,22,6c-5.5,0-10,4.5-10,10c0,0.2,0,0.3,0,0.5C10,17,8,18,6.4,19.2
		C6.1,18.2,6,17.1,6,16C6,8.8,11.8,3,19,3c6.6,0,12.1,4.9,12.9,11.3C31.9,14.5,31.9,14.7,31.9,14.8z"/>
</g>
<g class="st4">
	<path class="st1" d="M32,16c0-3.9-3.1-7-7-7s-7,3.1-7,7v0.1C17.3,16,16.7,16,16,16c-1.4,0-2.7,0.2-4,0.5c0-0.2,0-0.3,0-0.5
		c0-5.5,4.5-10,10-10c5.1,0,9.3,3.9,9.9,8.8c0,0.1,0,0.1,0,0.2c0,0.1,0,0.2,0,0.3v0.1C32,15.6,32,15.8,32,16z"/>
</g>
<g class="st4">
	<path class="st1" d="M15.5,32c-5.7-0.2-10.6-3.3-13.3-8c1.1-1.9,2.5-3.5,4.3-4.8C8,18,10,17,12,16.5c1.1-0.3,2.3-0.5,3.5-0.5
		C11.3,16.2,8,19.7,8,24C8,28.2,11.3,31.7,15.5,32z"/>
</g>
<g class="st4">
	<path class="st1" d="M29.9,24c-2.7,4.6-7.6,7.8-13.3,8c4.2-0.3,7.5-3.7,7.5-8s-3.3-7.8-7.5-8c0.5,0,1,0,1.5,0.1
		c4.2,0.5,8,2.7,10.5,5.9c0.2,0.3,0.4,0.6,0.7,0.9c0.1,0.2,0.3,0.4,0.4,0.6C29.7,23.7,29.8,23.8,29.9,24z"/>
</g>
<g class="st0">
	<path class="st1" d="M16.5,16c-0.2,0-0.3,0-0.5,0s-0.3,0-0.5,0C11.3,16.2,8,19.7,8,24c0,4.2,3.3,7.7,7.5,8c0.2,0,0.4,0,0.5,0
		s0.4,0,0.5,0c4.2-0.3,7.5-3.7,7.5-8S20.7,16.2,16.5,16z M16,28c-2.2,0-4-1.8-4-4s1.8-4,4-4s4,1.8,4,4S18.2,28,16,28z"/>
</g>
<g class="st5">
	<circle class="st1" cx="16" cy="24" r="4"/>
</g>
</svg>
