<?xml version="1.0" encoding="utf-8"?>
<!-- Generator: Adobe Illustrator 22.0.1, SVG Export Plug-In . SVG Version: 6.00 Build 0)  -->
<svg version="1.1" id="Layer_1" xmlns="http://www.w3.org/2000/svg" xmlns:xlink="http://www.w3.org/1999/xlink" x="0px" y="0px"
	 viewBox="0 0 32 32" style="enable-background:new 0 0 32 32;" xml:space="preserve">
<style type="text/css">
	.st0{fill:none;}
	.st1{fill:#FFFFFF;}
</style>
<rect class="st0" width="32" height="32"/>
<path class="st1" d="M30.8,18.5c0.1-0.8,0.2-1.7,0.2-2.5s-0.1-1.7-0.2-2.5h-4.1c-0.3-1.2-0.7-2.3-1.4-3.3l2.9-2.9
	c-0.5-0.7-1-1.3-1.6-1.9c-0.6-0.6-1.2-1.1-1.9-1.6l-2.9,2.9c-1-0.6-2.1-1.1-3.3-1.4V1.2C17.7,1.1,16.8,1,16,1s-1.7,0.1-2.5,0.2v4.1
	c-1.2,0.3-2.3,0.7-3.3,1.4L7.3,3.8C6.6,4.3,6,4.8,5.4,5.4C4.8,6,4.3,6.6,3.8,7.3l2.9,2.9c-0.6,1-1.1,2.1-1.4,3.3H1.2
	C1.1,14.3,1,15.2,1,16s0.1,1.7,0.2,2.5h4.1c0.3,1.2,0.7,2.3,1.4,3.3l-2.9,2.9c1,1.4,2.2,2.6,3.5,3.5l2.9-2.9c1,0.6,2.1,1.1,3.3,1.4
	v4.1c0.8,0.1,1.7,0.2,2.5,0.2s1.7-0.1,2.5-0.2v-4.1c1.2-0.3,2.3-0.7,3.3-1.4l2.9,2.9c1.4-1,2.6-2.2,3.5-3.5l-2.9-2.9
	c0.6-1,1.1-2.1,1.4-3.3H30.8z M16,21c-2.8,0-5-2.2-5-5s2.2-5,5-5s5,2.2,5,5S18.8,21,16,21z"/>
</svg>
